<svg xmlns="http://www.w3.org/2000/svg" viewBox="0 0 960 640" role="img" aria-labelledby="title desc">
  <title id="title">SmartRovert en laboratorio agrícola</title>
  <desc id="desc">Ilustración técnica de un robot agrícola autónomo monitoreando cultivos con sensores y cámara.</desc>
  <defs>
    <linearGradient id="sky" x1="0" x2="1" y1="0" y2="1">
      <stop stop-color="#F4F7F2"/>
      <stop offset="1" stop-color="#DDE5DD"/>
    </linearGradient>
    <linearGradient id="tech" x1="0" x2="1" y1="0" y2="1">
      <stop stop-color="#2E7D32"/>
      <stop offset="1" stop-color="#1565C0"/>
    </linearGradient>
    <filter id="shadow" x="-20%" y="-20%" width="140%" height="140%">
      <feDropShadow dx="0" dy="18" stdDeviation="18" flood-color="#1B1F1E" flood-opacity=".16"/>
    </filter>
  </defs>
  <rect width="960" height="640" rx="28" fill="url(#sky)"/>
  <path d="M0 448c118-38 220-42 330-14 122 31 208 24 324-8 112-30 213-17 306 28v186H0Z" fill="#A5D6A7" opacity=".44"/>
  <path d="M0 506c135-34 260-34 374-7 104 25 192 23 304-7 103-27 199-18 282 16v132H0Z" fill="#66BB6A" opacity=".38"/>
  <g opacity=".26" stroke="#1565C0" stroke-width="2">
    <path d="M82 122h188m-148 48h230m-93 48h135M670 118h184m-233 48h164m-202 50h234"/>
    <path d="M102 122v96M748 118v98"/>
  </g>
  <g transform="translate(205 232)" filter="url(#shadow)">
    <path d="M73 136h402c24 0 44 20 44 44v54H29v-54c0-24 20-44 44-44Z" fill="#FFFFFF" stroke="#DDE5DD" stroke-width="4"/>
    <rect x="141" y="66" width="238" height="92" rx="24" fill="#FFFFFF" stroke="#42A5F5" stroke-width="5"/>
    <rect x="198" y="18" width="122" height="58" rx="18" fill="#F4F7F2" stroke="#2E7D32" stroke-width="5"/>
    <circle cx="118" cy="250" r="58" fill="#1B1F1E"/>
    <circle cx="118" cy="250" r="24" fill="#42A5F5"/>
    <circle cx="430" cy="250" r="58" fill="#1B1F1E"/>
    <circle cx="430" cy="250" r="24" fill="#66BB6A"/>
    <path d="M261 18V-40" stroke="#1565C0" stroke-width="8" stroke-linecap="round"/>
    <circle cx="261" cy="-54" r="18" fill="url(#tech)"/>
    <rect x="183" y="94" width="34" height="34" rx="8" fill="#2E7D32"/>
    <rect x="238" y="94" width="34" height="34" rx="8" fill="#1565C0"/>
    <rect x="293" y="94" width="34" height="34" rx="8" fill="#66BB6A"/>
  </g>
  <g fill="none" stroke="#2E7D32" stroke-width="7" stroke-linecap="round" stroke-linejoin="round">
    <path d="M106 512c24-52 70-52 94 0M153 512V404M153 438c-38-35-65-19-82 12M155 458c43-40 73-18 92 14"/>
    <path d="M740 514c26-54 72-54 98 0M789 514V396M789 435c-42-37-70-19-90 14M791 460c44-40 76-18 96 14"/>
  </g>
  <g opacity=".62" fill="none" stroke="#1565C0" stroke-width="4" stroke-linecap="round">
    <path d="M562 302 740 208M572 330h220M562 358l178 100"/>
  </g>
</svg>
