<svg xmlns="http://www.w3.org/2000/svg" viewBox="0 0 960 640" role="img" aria-labelledby="title desc">
  <title id="title">Visión artificial aplicada al cultivo</title>
  <desc id="desc">Sistema de visión artificial analizando hojas de un cultivo.</desc>
  <defs>
    <linearGradient id="screen" x1="0" x2="1" y1="0" y2="1">
      <stop stop-color="#F4F7F2"/>
      <stop offset="1" stop-color="#FFFFFF"/>
    </linearGradient>
  </defs>
  <rect width="960" height="640" rx="28" fill="#F4F7F2"/>
  <rect x="110" y="82" width="740" height="476" rx="28" fill="url(#screen)" stroke="#DDE5DD" stroke-width="6"/>
  <rect x="154" y="128" width="432" height="340" rx="18" fill="#FFFFFF" stroke="#A5D6A7" stroke-width="5"/>
  <path d="M244 410c62-152 184-152 246 0M367 410V178M368 248c-102-92-174-48-220 34M372 300c110-104 188-48 238 36" fill="none" stroke="#2E7D32" stroke-width="11" stroke-linecap="round" stroke-linejoin="round"/>
  <g fill="none" stroke="#1565C0" stroke-width="6" stroke-linecap="round">
    <path d="M178 162h88M178 162v88M562 162h-88M562 162v88M178 434h88M178 434v-88M562 434h-88M562 434v-88"/>
  </g>
  <g transform="translate(635 150)">
    <rect width="156" height="56" rx="12" fill="#2E7D32"/>
    <text x="78" y="36" text-anchor="middle" font-family="Inter, Arial, sans-serif" font-size="20" font-weight="800" fill="#FFFFFF">ANÁLISIS</text>
    <rect y="88" width="156" height="18" rx="9" fill="#DDE5DD"/>
    <rect y="88" width="118" height="18" rx="9" fill="#66BB6A"/>
    <rect y="136" width="156" height="18" rx="9" fill="#DDE5DD"/>
    <rect y="136" width="98" height="18" rx="9" fill="#42A5F5"/>
    <rect y="184" width="156" height="18" rx="9" fill="#DDE5DD"/>
    <rect y="184" width="134" height="18" rx="9" fill="#1565C0"/>
    <g fill="#FFFFFF" stroke="#DDE5DD" stroke-width="4">
      <rect y="244" width="156" height="74" rx="14"/>
      <rect y="338" width="156" height="74" rx="14"/>
    </g>
    <text x="20" y="288" font-family="Inter, Arial, sans-serif" font-size="18" font-weight="700" fill="#1B1F1E">Hoja sana</text>
    <text x="20" y="382" font-family="Inter, Arial, sans-serif" font-size="18" font-weight="700" fill="#1B1F1E">Alerta leve</text>
  </g>
</svg>
